<svg width="128" height="128" viewBox="0 0 128 128" fill="none" xmlns="http://www.w3.org/2000/svg">
<path d="M100.412 46.412C99.2154 46.0017 98.0091 45.6215 96.7939 45.2718C96.998 44.4376 97.1859 43.6135 97.3528 42.8039C100.092 29.5092 98.3011 18.7987 92.1857 15.2723C86.3222 11.8916 76.733 15.4167 67.0485 23.8451C66.0941 24.6772 65.1608 25.5333 64.2496 26.4126C63.6396 25.8279 63.0189 25.2546 62.3876 24.6929C52.2378 15.681 42.0642 11.8828 35.9553 15.4194C30.0972 18.8105 28.3625 28.8792 30.8282 41.4789C31.0735 42.7268 31.3505 43.9682 31.6588 45.202C30.2188 45.6112 28.8292 46.0467 27.4993 46.5104C15.5994 50.6593 8 57.1612 8 63.9053C8 70.8708 16.1583 77.8573 28.5526 82.0937C29.5574 82.4356 30.5706 82.7526 31.5912 83.0442C31.2599 84.3731 30.9656 85.7109 30.7087 87.0562C28.3581 99.4373 30.1937 109.268 36.0361 112.638C42.0704 116.118 52.1983 112.541 62.0597 103.92C62.8593 103.219 63.6413 102.499 64.4051 101.759C65.3918 102.711 66.4049 103.635 67.4432 104.531C76.996 112.751 86.4302 116.07 92.2669 112.691C98.2954 109.201 100.255 98.6404 97.711 85.7918C97.5106 84.7852 97.2859 83.7836 97.0371 82.7878C97.7484 82.5771 98.4464 82.3602 99.127 82.1345C112.012 77.8657 120.396 70.9639 120.396 63.9053C120.396 57.1366 112.551 50.5909 100.412 46.412ZM97.6171 77.5772C97.0018 77.7804 96.3725 77.9772 95.7292 78.1677C94.3067 73.6645 92.3872 68.8762 90.0378 63.9286C92.2796 59.0991 94.1254 54.3719 95.5079 49.898C96.6578 50.2308 97.7734 50.5816 98.849 50.9517C109.25 54.5326 115.594 59.8262 115.594 63.9053C115.594 68.2501 108.742 73.8906 97.6171 77.5772ZM93.001 86.7243C94.1258 92.4055 94.286 97.5424 93.541 101.558C92.8719 105.167 91.5258 107.572 89.8609 108.536C86.3191 110.586 78.7443 107.921 70.575 100.891C69.6093 100.059 68.6668 99.1993 67.7488 98.3142C70.9161 94.8506 74.0812 90.8241 77.1703 86.352C82.6039 85.8699 87.7372 85.0814 92.3924 84.0053C92.6222 84.9308 92.8251 85.8371 93.001 86.7243ZM46.3181 108.182C42.8576 109.404 40.1012 109.439 38.4351 108.478C34.8898 106.433 33.4159 98.5399 35.4263 87.9519C35.6653 86.7007 35.9389 85.4564 36.2469 84.2204C40.8507 85.239 45.9467 85.9713 51.3931 86.413C54.5033 90.789 57.7597 94.8111 61.0415 98.3331C60.344 99.0079 59.6301 99.6655 58.9003 100.305C54.5393 104.117 50.1694 106.822 46.3181 108.182ZM30.1059 77.5504C24.6253 75.677 20.0992 73.2425 16.9969 70.5859C14.209 68.1988 12.8018 65.8284 12.8018 63.9053C12.8018 59.8126 18.9033 54.5923 29.0799 51.0444C30.3149 50.6141 31.6075 50.208 32.9488 49.8269C34.3555 54.4018 36.2003 59.1852 38.4267 64.0221C36.1714 68.9307 34.3001 73.7905 32.8798 78.4193C31.9482 78.1524 31.0233 77.8627 30.1059 77.5504ZM35.5404 40.5565C33.4282 29.7617 34.8309 21.6187 38.3613 19.5749C42.1213 17.3981 50.4359 20.5017 59.1997 28.2834C59.7712 28.792 60.3334 29.3108 60.8861 29.8398C57.6205 33.3465 54.3939 37.3387 51.3114 41.6888C46.0253 42.1787 40.9653 42.9655 36.3132 44.0197C36.0265 42.8721 35.7688 41.717 35.5404 40.5565ZM84.0229 52.5288C82.9241 50.6308 81.7845 48.7567 80.605 46.9077C84.1911 47.3612 87.627 47.9632 90.8536 48.699C89.8851 51.8039 88.6777 55.0498 87.2565 58.3778C86.2177 56.4068 85.1396 54.4567 84.0229 52.5288ZM64.2518 33.2718C66.4664 35.6712 68.6844 38.3498 70.866 41.2563C66.4405 41.0473 62.0075 41.0464 57.5818 41.2537C59.7657 38.374 62.0026 35.6989 64.2518 33.2718ZM44.3538 52.5613C43.2511 54.4737 42.1931 56.4116 41.1809 58.3734C39.7829 55.0573 38.5865 51.7965 37.6097 48.6476C40.8165 47.9302 44.2362 47.3437 47.7995 46.8985C46.6068 48.7587 45.458 50.6472 44.3538 52.5613ZM47.9018 81.2534C44.2204 80.8424 40.7493 80.2861 37.5434 79.5881C38.5356 76.383 39.7584 73.0529 41.1866 69.6656C42.2029 71.6289 43.2652 73.5679 44.3727 75.4812C45.5116 77.4481 46.6909 79.3747 47.9018 81.2534ZM64.3844 94.8769C62.1084 92.4218 59.8385 89.7054 57.6218 86.784C59.774 86.8683 61.9679 86.9113 64.1978 86.9113C66.4888 86.9113 68.7534 86.86 70.9824 86.7607C68.7938 89.7348 66.584 92.4552 64.3844 94.8769ZM87.3017 69.4926C88.8041 72.9172 90.0703 76.2298 91.0757 79.3799C87.8172 80.1237 84.2986 80.7225 80.5913 81.1673C81.7793 79.2841 82.9297 77.3773 84.0418 75.4483C85.1725 73.4875 86.2595 71.5018 87.3017 69.4926ZM79.8827 73.0493C78.1801 76.0068 76.3818 78.9083 74.4908 81.749C71.0652 81.9918 67.632 82.1123 64.1978 82.1104C60.6999 82.1104 57.2978 82.0015 54.0216 81.789C52.0811 78.9549 50.2485 76.0484 48.5278 73.0757C46.8151 70.1188 45.2158 67.0979 43.7326 64.0195C45.2121 60.9404 46.8069 57.918 48.5138 54.9589L48.5134 54.9594C50.2194 51.9993 52.0373 49.1053 53.9632 46.2834C57.3057 46.0305 60.7333 45.8988 64.1974 45.8988C67.6773 45.8988 71.1097 46.0318 74.4513 46.2865C76.3578 49.1041 78.1641 51.9882 79.8669 54.9335C81.5792 57.8862 83.1952 60.8938 84.7122 63.9514C83.2107 67.0404 81.5999 70.0749 79.8827 73.0493ZM89.7876 19.4314C93.5511 21.602 95.0149 30.3552 92.6502 41.8341C92.4985 42.567 92.3302 43.3119 92.1453 44.0688C87.4817 42.9923 82.4182 42.1919 77.1167 41.6945C74.0285 37.2966 70.8283 33.2982 67.6158 29.8367C68.4577 29.0252 69.3197 28.2347 70.2009 27.4659C78.4989 20.2449 86.2542 17.3937 89.7876 19.4314ZM64.1978 53.8688C69.7408 53.8688 74.2344 58.3624 74.2344 63.9053C74.2344 69.4483 69.7408 73.9419 64.1978 73.9419C58.6549 73.9419 54.1612 69.4483 54.1612 63.9053C54.1612 58.3624 58.6549 53.8688 64.1978 53.8688Z" fill="#00D8FF"/>
</svg>
