<svg width="60" height="223" viewBox="0 0 60 223" fill="none" xmlns="http://www.w3.org/2000/svg">
<path d="M0.5 0.500061L59.5 0.500061V6.50006L0.5 6.50006V0.500061ZM0.5 15.5001L59.5 15.5001V18.5001L0.5 18.5001V15.5001ZM0.5 21.5001L59.5 21.5001V24.5001L0.5 24.5001V21.5001ZM0.5 33.5079H59.5V39.5079H0.5V33.5079ZM0.5 48.5079H59.5V51.5079H0.5V48.5079ZM0.5 60.5079H59.5V63.5079H0.5V60.5079ZM0.5 66.5157H59.5V72.5157H0.5V66.5157ZM0.5 81.5157H59.5L59.5 84.5157H0.5L0.5 81.5157ZM0.5 87.5157H59.5V96.5157H0.5V87.5157ZM0.5 99.5235H59.5V102.523H0.5V99.5235ZM0.5 111.523H59.5V117.523H0.5V111.523ZM0.5 120.523H59.5V123.523H0.5V120.523ZM0.5 132.531H59.5V138.531H0.5V132.531ZM0.5 141.531H59.5V147.531H0.5V141.531ZM0.5 153.531H59.5V159.531H0.5V153.531ZM0.5 165.539H59.5V168.539H0.5V165.539ZM0.5 171.539H59.5V180.539H0.5V171.539ZM0.5 183.539H59.5V189.539H0.5V183.539ZM0.5 198.547H59.5V201.547H0.5V198.547ZM0.5 210.547H59.5V216.547H0.5V210.547ZM0.5 219.547H59.5V222.547H0.5V219.547Z" fill="black"/>
</svg>
