<svg width="128" height="128" viewBox="0 0 128 128" fill="none" xmlns="http://www.w3.org/2000/svg">
<path d="M34.4914 13.0889C34.3307 13.1516 29.8155 15.7242 24.4591 18.8029C17.969 22.534 14.6356 24.4992 14.4573 24.684C14.3046 24.8647 14.1841 25.0712 14.1054 25.2946C13.9712 25.7477 13.9615 91.9666 14.0973 92.4431C14.1463 92.6279 14.3062 92.8994 14.4508 93.0489C14.8011 93.4184 53.5486 115.697 54.0194 115.805C54.238 115.857 54.483 115.848 54.7264 115.781C55.2551 115.648 93.9014 93.4184 94.2452 93.0553C94.3858 92.8986 94.5465 92.6279 94.5987 92.4439C94.6662 92.2245 94.6911 88.7642 94.6911 81.4731V70.8197L104.112 65.4087C112.995 60.3013 113.539 59.9816 113.767 59.6313L114 59.2537V47.7784C114 35.2867 114.024 35.9897 113.53 35.5382C113.397 35.4209 108.872 32.7801 103.463 29.6652L93.6387 24.0155H92.5468L82.9354 29.535C77.6441 32.5784 73.1465 35.1807 72.9272 35.3221C72.7087 35.4667 72.4476 35.7334 72.3407 35.9271L72.1463 36.2621L72.1029 47.0722L72.0643 57.8862L64.1273 62.4577C59.7615 64.9676 56.1276 67.0453 56.0505 67.0645C55.9099 67.1039 55.9002 66.0747 55.9002 46.2028V25.2873L55.6914 24.9282C55.4294 24.4903 56.604 25.1885 44.8098 18.4092C34.9188 12.721 35.1567 12.8399 34.4914 13.0889ZM43.5838 21.3698C47.7214 23.7439 51.107 25.7083 51.107 25.7324C51.107 25.7573 47.4788 27.8543 43.0447 30.4027L34.9775 35.0345L26.9248 30.4035C22.5003 27.8543 18.8745 25.7573 18.8745 25.7324C18.8745 25.7075 22.4939 23.6114 26.9192 21.0685L34.9526 16.4473L35.5069 16.7493C38.2043 18.2812 40.8966 19.8214 43.5838 21.3698ZM101.164 32.024C105.52 34.5323 109.124 36.6052 109.158 36.6389C109.249 36.7216 93.2707 45.9064 93.0522 45.8967C92.8336 45.8903 77.052 36.7899 77.0584 36.6791C77.0664 36.5529 92.9445 27.418 93.1052 27.4429C93.1783 27.4606 96.8065 29.5238 101.164 32.024ZM25.6771 33.3497L33.3562 37.7709L33.4004 59.6618L33.4405 81.5567L33.6277 81.8523C33.7258 82.0082 33.9105 82.2211 34.0455 82.3191C34.1725 82.4115 38.4459 84.8467 43.5404 87.7214L52.7958 92.9484V102.209C52.7958 107.292 52.7613 111.462 52.7179 111.462C52.6849 111.462 44.6837 106.883 34.9429 101.278L17.2355 91.0941L17.2114 59.7879L17.1961 28.4914L17.5898 28.7091C17.8172 28.8296 21.4519 30.9169 25.6763 33.3489L25.6771 33.3497ZM52.7958 48.7593V68.9325L52.4849 69.1358C52.0631 69.4025 36.684 78.2426 36.6317 78.2426C36.6076 78.2426 36.5884 69.135 36.5884 58.0019L36.598 37.7701L44.6322 33.1488C49.0503 30.606 52.6938 28.5428 52.7372 28.5581C52.7685 28.5773 52.7958 37.6689 52.7958 48.7593ZM83.4464 44.1196L91.4991 48.7497V57.928C91.4991 66.6355 91.4903 67.1031 91.3577 67.0525C91.2718 67.0195 87.6282 64.9315 83.2568 62.4135L75.2949 57.842V48.6669C75.2949 43.6158 75.3206 39.4886 75.3447 39.4886C75.3793 39.4886 79.022 41.5711 83.4464 44.1196ZM110.895 48.6083C110.895 53.6329 110.861 57.777 110.827 57.8171C110.769 57.9095 94.8422 67.087 94.741 67.087C94.716 67.087 94.6911 62.9615 94.6911 57.9095V48.7344L102.725 44.1099C107.15 41.5711 110.793 39.4886 110.827 39.4886C110.87 39.4886 110.895 43.5901 110.895 48.6083ZM89.7043 69.9898L54.3633 90.1614L38.3358 81.0449C38.3358 81.0449 73.6414 60.6251 73.7828 60.6781L89.7043 69.9898ZM91.4839 81.9022L91.4566 91.0949L73.7587 101.279C64.0213 106.884 56.0175 111.463 55.9774 111.463C55.9348 111.463 55.901 107.72 55.901 102.21V92.9492L73.6406 82.8325C83.3878 77.2704 91.3971 72.7174 91.4397 72.7078C91.4742 72.7078 91.4895 76.8438 91.4831 81.9014L91.4839 81.9022Z" fill="#F0513F"/>
</svg>
