<svg width="128" height="128" viewBox="0 0 128 128" fill="none" xmlns="http://www.w3.org/2000/svg">
<path d="M14 14H114V114.001H14V14Z" fill="#F0DB4F"/>
<path d="M105.816 90.1503C105.084 85.5882 102.109 81.7563 93.2969 78.1831C90.2358 76.7764 86.8232 75.7691 85.8063 73.4493C85.4453 72.0993 85.3973 71.3388 85.6258 70.5216C86.2816 67.8695 89.4474 67.0427 91.9565 67.8032C93.5725 68.3448 95.1023 69.5902 96.0249 71.5769C100.34 68.7826 100.331 68.8009 103.345 66.8806C102.241 65.1703 101.653 64.381 100.93 63.6493C98.3351 60.7504 94.7987 59.2574 89.143 59.3716L86.197 59.7527C83.3739 60.466 80.6835 61.9478 79.1058 63.9345C74.372 69.3058 75.722 78.7064 81.4823 82.5751C87.1572 86.8344 95.4937 87.8034 96.5585 91.7863C97.5946 96.6623 92.975 98.2408 88.3834 97.68C84.9995 96.9763 83.1175 95.2564 81.0829 92.129C77.338 94.2962 77.338 94.2962 73.4877 96.5106C74.4007 98.5068 75.3601 99.4103 76.8907 101.14C84.1344 108.487 102.261 108.126 105.513 97.005C105.644 96.6232 106.52 94.0765 105.816 90.1503ZM68.3632 59.9604H59.0098L58.9714 84.1424C58.9714 89.2852 59.2375 93.9998 58.4011 95.4449C57.0327 98.2871 53.4867 97.9349 51.8707 97.3837C50.2259 96.5753 49.3896 95.4257 48.4206 93.8009C48.1546 93.3344 47.9549 92.9734 47.8878 92.9454L40.283 97.6025C41.5475 100.198 43.4104 102.451 45.7964 103.914C49.3608 106.053 54.1513 106.709 59.1616 105.559C62.4224 104.609 65.2358 102.642 66.7089 99.6467C68.8385 95.7205 68.3816 90.9683 68.3624 85.712C68.4104 77.1367 68.3632 68.5629 68.3632 59.9604Z" fill="#323330"/>
</svg>
