<svg width="128" height="128" viewBox="0 0 128 128" fill="none" xmlns="http://www.w3.org/2000/svg">
<path d="M112.115 59.546L68.453 15.8858C65.9402 13.3714 61.8621 13.3714 59.3453 15.8858L50.2796 24.9531L61.7805 36.4539C64.4541 35.5516 67.5182 36.1569 69.6484 38.287C71.7897 40.4307 72.3901 43.521 71.4657 46.2033L82.5498 57.2883C85.2314 56.3638 88.3264 56.9611 90.4669 59.1063C93.4613 62.0984 93.4613 66.9489 90.4669 69.9425C89.7553 70.6545 88.9104 71.2192 87.9804 71.6046C87.0505 71.9899 86.0538 72.1882 85.0472 72.1882C84.0406 72.1882 83.0438 71.9899 82.1139 71.6046C81.184 71.2192 80.3391 70.6545 79.6275 69.9425C78.5586 68.8726 77.83 67.5104 77.5333 66.0274C77.2366 64.5445 77.385 63.0069 77.9599 61.608L67.6236 51.2717L67.622 78.4759C68.372 78.8451 69.0567 79.3342 69.6492 79.924C72.642 82.9161 72.642 87.765 69.6492 90.7634C66.6555 93.7555 61.8034 93.7555 58.813 90.7634C55.8201 87.7658 55.8201 82.9168 58.813 79.924C59.5307 79.2066 60.3834 78.6385 61.3218 78.2525V50.7963C60.3823 50.4119 59.5293 49.8433 58.813 49.1241C56.5457 46.8584 55.9999 43.5313 57.1629 40.746L45.8244 29.4075L15.8863 59.344C14.6785 60.5522 14 62.1906 14 63.899C14 65.6074 14.6785 67.2458 15.8863 68.454L59.5489 112.114C62.0633 114.629 66.1398 114.629 68.6582 112.114L112.116 68.6568C113.323 67.4483 114.001 65.8097 114.001 64.1012C114.001 62.3928 113.323 60.7543 112.115 59.546Z" fill="#F34F29"/>
</svg>
