<svg width="128" height="128" viewBox="0 0 128 128" fill="none" xmlns="http://www.w3.org/2000/svg">
<g clip-path="url(#clip0_47_42)">
<path d="M17.4741 103.276L33.2291 2.46199C33.3235 1.85949 33.6047 1.30187 34.0332 0.867884C34.4616 0.433895 35.0156 0.145471 35.6168 0.0433509C36.218 -0.058769 36.8361 0.0305762 37.3838 0.298767C37.9315 0.566958 38.3811 1.00044 38.6691 1.53799L54.9631 31.928L61.4571 19.562C61.704 19.0929 62.0744 18.7002 62.5282 18.4263C62.982 18.1523 63.502 18.0075 64.0321 18.0075C64.5622 18.0075 65.0822 18.1523 65.536 18.4263C65.9898 18.7002 66.3602 19.0929 66.6071 19.562L110.577 103.276H17.4741Z" fill="#FFA000"/>
<path d="M71.9031 64.005L54.9551 31.913L17.4741 103.276L71.9031 64.005Z" fill="#F57C00"/>
<path d="M110.577 103.276L98.5101 28.604C98.4209 28.0776 98.1887 27.5859 97.8387 27.1827C97.4888 26.7795 97.0347 26.4804 96.5261 26.318C96.0177 26.156 95.4746 26.137 94.956 26.2629C94.4375 26.3888 93.9636 26.6549 93.5861 27.032L17.4741 103.275L59.5891 126.893C60.8898 127.619 62.3546 128 63.8441 128C65.3337 128 66.7985 127.619 68.0991 126.893L110.577 103.276Z" fill="#FFCA28"/>
<path d="M98.5101 28.604C98.4209 28.0776 98.1886 27.5859 97.8387 27.1828C97.4888 26.7796 97.0347 26.4804 96.5261 26.318C96.0178 26.1559 95.4747 26.1367 94.9562 26.2624C94.4377 26.3882 93.9637 26.6541 93.5861 27.031L78.4791 42.178L66.6001 19.562C66.3532 19.0929 65.9828 18.7002 65.529 18.4263C65.0752 18.1523 64.5552 18.0075 64.0251 18.0075C63.495 18.0075 62.975 18.1523 62.5212 18.4263C62.0674 18.7002 61.697 19.0929 61.4501 19.562L54.9561 31.927L38.6621 1.53801C38.3737 0.999723 37.9233 0.565791 37.3747 0.297661C36.8261 0.0295304 36.207 -0.0592082 35.6051 0.0440107C35.0036 0.147201 34.4498 0.436867 34.022 0.872042C33.5942 1.30722 33.314 1.86588 33.2211 2.46901L17.4741 103.276H17.4231L17.4731 103.334L17.8881 103.538L93.5641 27.774C93.9415 27.3949 94.4161 27.1272 94.9357 27.0003C95.4553 26.8733 95.9999 26.8921 96.5095 27.0544C97.0192 27.2168 97.4742 27.5164 97.8247 27.9205C98.1752 28.3246 98.4075 28.8175 98.4961 29.345L110.461 103.348L110.577 103.275L98.5101 28.604ZM17.6121 103.138L33.2281 3.18201C33.3209 2.57855 33.6011 2.01957 34.0292 1.58418C34.4572 1.1488 35.0113 0.859069 35.6131 0.756011C36.2151 0.652879 36.8342 0.741767 37.3829 1.01008C37.9316 1.2784 38.3819 1.71254 38.6701 2.25101L54.9621 32.641L61.4571 20.275C61.704 19.8059 62.0744 19.4132 62.5282 19.1393C62.982 18.8653 63.502 18.7205 64.0321 18.7205C64.5622 18.7205 65.0822 18.8653 65.536 19.1393C65.9898 19.4132 66.3602 19.8059 66.6071 20.275L78.2451 42.41L17.6101 103.138H17.6121Z" fill="white" fill-opacity="0.2"/>
<path opacity="0.2" d="M68.0989 126.18C66.7983 126.906 65.3335 127.287 63.8439 127.287C62.3544 127.287 60.8896 126.906 59.5889 126.18L17.5739 102.63L17.4719 103.277L59.5869 126.887C60.8876 127.613 62.3524 127.994 63.8419 127.994C65.3315 127.994 66.7963 127.613 68.0969 126.887L110.577 103.277L110.467 102.607L68.0969 126.182L68.0989 126.18Z" fill="#A52714"/>
</g>
<defs>
<clipPath id="clip0_47_42">
<rect width="128" height="128" fill="white"/>
</clipPath>
</defs>
</svg>
