<svg width="128" height="128" viewBox="0 0 128 128" fill="none" xmlns="http://www.w3.org/2000/svg">
<path d="M51.3 17.7H23.2C17.6 17.7 13 22.3 13 28C12.8 33.5 17.2 38.1 22.7 38.3H51.6L51.3 17.7Z" fill="#073042"/>
<path d="M115 109.3H23.2C17.5 109.3 13 104.7 13 99V27.9C13 33.6 17.6 38.2 23.2 38.3H100.1C100.1 38.3 115.1 37 115.1 48.3V109.3H115Z" fill="#4285F4"/>
<path d="M72.2 72.9C76.3 69.8 77.1 64 74 60C72.3 57.8 69.7001 56.4 66.9001 56.3H67.2C67.7 56.2 68.3001 56.2 68.8001 56.3V50.6C68.8001 49.9 68.5001 49.3 67.9001 49C67.0001 48.5 65.9001 48.8 65.4001 49.7C65.2001 50 65.1 50.3 65.2 50.7V56.5C60.2 57.3 56.7 62 57.5 67.1V67.2C57.9 69.6 59.2001 71.8 61.2001 73.2L44.3 109.4H55.3L63.1 92.8C64 90.8 66.4 89.9 68.5 90.9C69.3 91.3 70.0001 92 70.4001 92.8L78.5 109.4H89.7L72.2 72.9ZM66.5 71.3C63.3 71.3 60.8 68.7 60.8 65.5C60.8 62.3 63.4 59.8 66.6 59.9C68.1 59.9 69.4 60.5 70.5 61.5C72.8 63.7 72.8 67.3 70.6 69.6C69.6 70.6 68.1 71.3 66.5 71.3Z" fill="#3870B2"/>
<path d="M45.2 22.7H84.5999V29.9H45.2V22.7Z" fill="white"/>
<path d="M63.5 59.8C66.6 59.8 69.2 62.4 69.1 65.6C69.1 68.7 66.5 71.3 63.3 71.2C60.2 71.2 57.7 68.6 57.7 65.5C57.7 64 58.3 62.6 59.4 61.5C60.5 60.4 62 59.8 63.5 59.8ZM65.7 56.5V50.5C65.7 49.8 65.4 49.2 64.8 48.9C63.9 48.4 62.8 48.7 62.3 49.6C62.1 49.9 62 50.2 62.1 50.6V56.4C57.1 57.2 53.6 61.9 54.4 67V67.1C54.8 69.5 56.1 71.7 58.1 73.1L36.8 118.8C36 120.4 36.1 122.4 37.2 123.9C38.8 126.2 41.9 126.8 44.2 125.2C45 124.7 45.6 123.9 46 123.1L60.2 92.7C61.1 90.7 63.5 89.8 65.6 90.8C66.4 91.2 67.1 91.9 67.5 92.7L82 122.8C83.2 125.3 86.2 126.3 88.7 125.1C91.2 123.9 92.2 120.9 91 118.4L69.1 72.9C73.1 69.7 73.8 63.8 70.6 59.8C69.4 58.2 67.7 57.1 65.7 56.5Z" fill="#073042"/>
<path d="M78.7999 29.1C77.2999 29.1 76.0999 28 76.0999 26.5C76.0999 25.8 76.3999 25 76.8999 24.5C77.9999 23.5 79.5999 23.5 80.6999 24.5C81.1999 25 81.4999 25.7 81.4999 26.4C81.3999 27.9 80.2999 29 78.7999 29.1ZM49.1999 29C47.6999 29 46.4999 27.8 46.4999 26.4C46.4999 25.7 46.7999 25 47.2999 24.5C48.1999 23.4 49.8999 23.2 50.9999 24.1H51.0999C52.1999 25.1 52.2999 26.8 51.2999 27.9L50.9999 28.3C50.4999 28.8 49.7999 29.1 49.0999 29.1M79.5999 12.9L84.8999 3.7C85.1999 3.2 84.9999 2.6 84.5999 2.2C84.0999 2 83.5999 2.1 83.2999 2.5L77.7999 12C68.9999 8.1 58.9999 8.1 50.2999 12L44.8999 2.6C44.6999 2.3 44.2999 2 43.8999 2C43.4999 2 43.0999 2.2 42.8999 2.6C42.6999 2.9 42.6999 3.4 42.8999 3.7L48.2999 12.9C38.8999 18 32.7999 27.6 31.8999 38.2H96.0999C95.2999 27.5 89.0999 18 79.6999 12.9" fill="#3DDC84"/>
<path d="M105.6 58.1H101.4C101.2 58.2 101 58.4 101 58.7V125.2C101 125.5 101.2 125.7 101.5 125.7H105.9C111 125.7 115.1 121.5 115.1 116.5V48.8C115.1 53.9 111 58 105.9 58H105.6V58.1Z" fill="#073042"/>
</svg>
