<svg width="128" height="128" viewBox="0 0 128 128" fill="none" xmlns="http://www.w3.org/2000/svg">
<path d="M23.6081 108.804L14.6201 8H113.38L104.38 108.788L63.9401 120L23.6081 108.804Z" fill="#E44F26"/>
<path d="M64 111.432L96.68 102.372L104.368 16.244H64V111.432Z" fill="#F1662A"/>
<path d="M64 53.628H47.64L46.512 40.968H64V28.604H33L33.296 31.924L36.332 65.992H64V53.628ZM64 85.736L63.944 85.752L50.176 82.036L49.296 72.176H36.884L38.616 91.584L63.944 98.616L64 98.6V85.736Z" fill="#EBEBEB"/>
<path d="M63.9561 53.628V65.992H79.1801L77.7481 82.028L63.9561 85.748V98.612L89.3041 91.584L89.4881 89.496L92.3921 56.948L92.6961 53.628H63.9561ZM63.9561 28.604V40.968H93.8201L94.0681 38.192L94.6321 31.924L94.9281 28.604H63.9561Z" fill="white"/>
</svg>
