<svg width="128" height="128" viewBox="0 0 128 128" fill="none" xmlns="http://www.w3.org/2000/svg">
<path d="M64.3729 114C62.9949 114 61.7088 113.632 60.5145 112.989L48.2957 105.731C46.4584 104.721 47.377 104.353 47.9282 104.17C50.4086 103.343 50.8679 103.159 53.4402 101.689C53.7161 101.505 54.0836 101.597 54.3588 101.781L63.7298 107.385C64.0973 107.569 64.5566 107.569 64.8322 107.385L101.488 86.1633C101.856 85.9796 102.04 85.6121 102.04 85.1528V42.8006C102.04 42.3413 101.856 41.9738 101.488 41.7901L64.8322 20.6599C64.4647 20.4762 64.0054 20.4762 63.7298 20.6599L27.0737 41.7904C26.7062 41.9742 26.5225 42.4335 26.5225 42.8009V85.1528C26.5225 85.5202 26.7062 85.9796 27.0737 86.1633L37.0877 91.9508C42.5081 94.7068 45.9068 91.4915 45.9068 88.2762V46.4752C45.9068 45.924 46.3665 45.3728 47.0096 45.3728H51.6951C52.2463 45.3728 52.7975 45.8322 52.7975 46.4752V88.2759C52.7975 95.5336 48.8469 99.7594 41.9566 99.7594C39.8437 99.7594 38.1901 99.7594 33.505 97.4628L23.8584 91.9508C21.4699 90.5725 20 88.0003 20 85.2443V42.8928C20 40.1368 21.4699 37.5646 23.8584 36.1863L60.5145 14.9646C62.8112 13.6785 65.9346 13.6785 68.2312 14.9646L104.887 36.1863C107.276 37.5643 108.746 40.1365 108.746 42.8928V85.2446C108.746 88.0006 107.276 90.5728 104.887 91.9508L68.2312 113.173C67.037 113.724 65.659 114 64.3729 114M75.6727 84.8772C59.5955 84.8772 56.2883 77.5279 56.2883 71.2807C56.2883 70.7295 56.7477 70.1783 57.3907 70.1783H62.1678C62.7189 70.1783 63.1786 70.5458 63.1786 71.097C63.9136 75.9659 66.0265 78.3547 75.7646 78.3547C83.4816 78.3547 86.7892 76.6093 86.7892 72.4753C86.7892 70.0864 85.8705 68.341 73.8354 67.1464C63.8217 66.1359 57.5745 63.9311 57.5745 55.9388C57.5745 48.497 63.8213 44.0874 74.2947 44.0874C86.0539 44.0874 91.8418 48.1295 92.5767 56.949C92.5767 57.2247 92.4848 57.5003 92.3011 57.7757C92.1174 57.9595 91.8418 58.1432 91.5662 58.1432H86.7892C86.3295 58.1432 85.8705 57.7757 85.7783 57.3164C84.6759 52.2638 81.8281 50.6102 74.2947 50.6102C65.8431 50.6102 64.8322 53.5499 64.8322 55.7547C64.8322 58.4192 66.0265 59.2456 77.4182 60.7154C88.7183 62.1853 94.0466 64.2986 94.0466 72.1994C93.9547 80.2839 87.3403 84.8772 75.6727 84.8772Z" fill="#539E43"/>
</svg>
