<svg width="250" height="120" viewBox="0 0 250 120" fill="none" xmlns="http://www.w3.org/2000/svg">
<path d="M18.992 86.6682C22.9622 87.2488 25.7769 84.5566 27.4361 78.5916C28.7398 73.788 29.5596 67.2159 29.8954 58.8756C30.2114 50.7993 29.9448 44.808 29.0954 40.9015C28.0287 35.8868 25.7375 33.1946 22.2215 32.8252L18.992 86.6682ZM24.2067 3.1324C32.3249 3.1324 38.2803 7.85687 42.0728 17.3058C45.0159 24.6432 46.7245 35.834 47.1985 50.8784C47.7319 68.087 46.0529 82.9466 42.1616 95.4571C39.2778 104.695 35.8113 110.792 31.762 113.748C28.9571 115.754 24.5721 116.757 18.6068 116.757H0.0888672L7.64419 3.1324H24.2067ZM71.6718 85.322H89.8046L87.701 116.678H50.3688L51.4354 99.9704C51.8898 92.8969 53.1045 86.8794 55.0797 81.9172L74.1311 34.3297H56.6797L58.7241 3.68667H95.7007L94.5156 19.8395C94.0218 26.7019 92.8169 32.5083 90.9008 37.2594L71.6718 85.322ZM131.67 3.44914H150.455L133.388 58.8756L143.491 116.519H125.655L118.426 69.169L115.285 116.519H98.8118L106.337 3.44914H122.811L119.789 48.7404L131.67 3.44914ZM175.757 30.7665L174.394 51.1953C177.081 51.0895 178.74 50.6144 179.373 49.7699C181.308 47.1834 182.049 43.2772 181.595 38.051C181.12 32.4558 179.175 30.0275 175.757 30.7665ZM177.595 3.05322C186.008 3.05322 191.302 4.90078 193.476 8.59587C195.51 12.027 196.913 16.5931 197.683 22.2941C198.65 29.526 198.354 37.4176 196.794 45.9691C195.471 53.2537 192.597 58.7964 188.172 62.5972C192.734 63.4946 194.72 69.8553 194.127 81.6798C193.436 94.982 192.734 106.569 192.024 116.44H175.521C176.232 105.566 176.695 96.3016 176.913 88.6476C177.13 80.6238 175.688 77.1136 172.587 78.1164L170.039 116.44H153.536L161.091 3.05322H177.595ZM234.778 3.05322H248.941L229.504 76.4536L227.045 117.074H209.83L212.675 74.6326L201.476 3.05322H215.135C217.426 3.05322 218.927 5.98292 219.637 11.8423L223.46 42.9603L229.919 10.8129C230.966 5.63979 232.585 3.05322 234.778 3.05322Z" fill="black"/>
</svg>
