<svg width="224" height="226" viewBox="0 0 224 226" fill="none" xmlns="http://www.w3.org/2000/svg">
<rect width="224" height="226" fill="#FFFCF8"/>
<path d="M23.6494 119.723C26.9209 119.902 29.2402 119.072 30.6074 117.232C31.6816 115.751 32.3571 113.725 32.6338 111.153C32.8942 108.663 32.6745 106.816 31.9746 105.611C31.0957 104.065 29.2077 103.235 26.3105 103.121L23.6494 119.723ZM27.9463 93.9658C34.6357 93.9658 39.543 95.4225 42.668 98.3359C45.0931 100.598 46.501 104.049 46.8916 108.688C47.3311 113.993 45.9476 118.575 42.7412 122.433C40.3649 125.281 37.5085 127.161 34.1719 128.072C31.8607 128.691 28.2474 129 23.332 129H8.07324L14.2988 93.9658H27.9463ZM67.0576 119.308H81.999L80.2656 128.976H49.5039L50.3828 123.824C50.7572 121.643 51.7581 119.788 53.3857 118.258L69.084 103.585H54.7041L56.3887 94.1367H86.8574L85.8809 99.1172C85.474 101.233 84.4811 103.023 82.9023 104.488L67.0576 119.308ZM116.496 94.0635H131.975L117.912 111.153L126.237 128.927H111.54L105.583 114.327L102.995 128.927H89.4209L95.6221 94.0635H109.196L106.706 108.028L116.496 94.0635ZM152.824 102.486L151.701 108.785C153.915 108.753 155.282 108.606 155.803 108.346C157.398 107.548 158.008 106.344 157.634 104.732C157.243 103.007 155.64 102.258 152.824 102.486ZM154.338 93.9414C161.271 93.9414 165.633 94.5111 167.424 95.6504C169.1 96.7083 170.256 98.1162 170.891 99.874C171.688 102.104 171.444 104.537 170.158 107.174C169.068 109.42 166.7 111.129 163.054 112.301C166.813 112.577 168.449 114.539 167.961 118.185C167.391 122.286 166.813 125.859 166.228 128.902H152.629C153.215 125.549 153.597 122.693 153.776 120.333C153.955 117.859 152.767 116.777 150.212 117.086L148.112 128.902H134.514L140.739 93.9414H154.338ZM201.457 93.9414H213.127L197.111 116.573L195.085 129.098H180.9L183.244 116.012L174.016 93.9414H185.271C187.159 93.9414 188.396 94.8447 188.981 96.6514L192.131 106.246L197.453 96.334C198.316 94.7389 199.65 93.9414 201.457 93.9414Z" fill="black"/>
</svg>
