<svg width="100" height="122" viewBox="0 0 100 122" fill="none" xmlns="http://www.w3.org/2000/svg">
<path d="M55 17C55 14.2386 52.7614 12 50 12C47.2386 12 45 14.2386 45 17L55 17ZM46.4645 107.559C48.4171 109.512 51.5829 109.512 53.5355 107.559L85.3553 75.7391C87.308 73.7865 87.308 70.6207 85.3553 68.6681C83.4027 66.7154 80.2369 66.7154 78.2843 68.6681L50 96.9523L21.7157 68.6681C19.7631 66.7154 16.5973 66.7154 14.6447 68.6681C12.692 70.6207 12.692 73.7865 14.6447 75.7391L46.4645 107.559ZM45 17L45 104.023L55 104.023L55 17L45 17Z" fill="black"/>
</svg>
