<svg width="206" height="37" viewBox="0 0 206 37" fill="none" xmlns="http://www.w3.org/2000/svg">
<path d="M15.6494 26.7227C18.9209 26.9017 21.2402 26.0716 22.6074 24.2324C23.6816 22.7513 24.3571 20.7249 24.6338 18.1533C24.8942 15.6631 24.6745 13.8158 23.9746 12.6113C23.0957 11.0651 21.2077 10.235 18.3105 10.1211L15.6494 26.7227ZM19.9463 0.96582C26.6357 0.96582 31.543 2.42253 34.668 5.33594C37.0931 7.59831 38.501 11.0488 38.8916 15.6875C39.3311 20.9935 37.9476 25.5752 34.7412 29.4326C32.3649 32.2809 29.5085 34.1608 26.1719 35.0723C23.8607 35.6908 20.2474 36 15.332 36H0.0732422L6.29883 0.96582H19.9463ZM59.0576 26.3076H73.999L72.2656 35.9756H41.5039L42.3828 30.8242C42.7572 28.6432 43.7581 26.7878 45.3857 25.2578L61.084 10.585H46.7041L48.3887 1.13672H78.8574L77.8809 6.11719C77.474 8.23307 76.4811 10.0234 74.9023 11.4883L59.0576 26.3076ZM108.496 1.06348H123.975L109.912 18.1533L118.237 35.9268H103.54L97.583 21.3271L94.9951 35.9268H81.4209L87.6221 1.06348H101.196L98.7061 15.0283L108.496 1.06348ZM144.824 9.48633L143.701 15.7852C145.915 15.7526 147.282 15.6061 147.803 15.3457C149.398 14.5482 150.008 13.3438 149.634 11.7324C149.243 10.0072 147.64 9.25846 144.824 9.48633ZM146.338 0.941406C153.271 0.941406 157.633 1.51107 159.424 2.65039C161.1 3.70833 162.256 5.11621 162.891 6.87402C163.688 9.10384 163.444 11.5371 162.158 14.1738C161.068 16.4199 158.7 18.1289 155.054 19.3008C158.813 19.5775 160.449 21.5387 159.961 25.1846C159.391 29.2861 158.813 32.8587 158.228 35.9023H144.629C145.215 32.5495 145.597 29.693 145.776 27.333C145.955 24.859 144.767 23.7767 142.212 24.0859L140.112 35.9023H126.514L132.739 0.941406H146.338ZM193.457 0.941406H205.127L189.111 23.5732L187.085 36.0977H172.9L175.244 23.0117L166.016 0.941406H177.271C179.159 0.941406 180.396 1.84473 180.981 3.65137L184.131 13.2461L189.453 3.33398C190.316 1.73893 191.65 0.941406 193.457 0.941406Z" fill="black"/>
</svg>
