<svg width="100" height="100" viewBox="0 0 24 24" fill="none" xmlns="http://www.w3.org/2000/svg">
<path d="M12.2234 3C11.0122 3 9.81282 3.23857 8.69378 3.70209C7.57474 4.16561 6.55796 4.84501 5.70148 5.70148C3.97175 7.43121 3 9.77723 3 12.2234C3 16.3002 5.64713 19.759 9.30884 20.9857C9.77001 21.0595 9.91758 20.7736 9.91758 20.5245V18.9658C7.36269 19.5192 6.81851 17.7298 6.81851 17.7298C6.39423 16.6599 5.7947 16.374 5.7947 16.374C4.95537 15.8021 5.85927 15.8206 5.85927 15.8206C6.78161 15.8851 7.27045 16.7706 7.27045 16.7706C8.07289 18.1726 9.42874 17.7575 9.95448 17.5361C10.0375 16.9366 10.2773 16.5308 10.5356 16.3002C8.48795 16.0696 6.33889 15.2764 6.33889 11.7623C6.33889 10.7385 6.68938 9.91758 7.2889 9.26272C7.19667 9.03213 6.87385 8.07289 7.38114 6.82773C7.38114 6.82773 8.1559 6.5787 9.91758 7.76852C10.6462 7.5656 11.4395 7.46415 12.2234 7.46415C13.0074 7.46415 13.8007 7.5656 14.5293 7.76852C16.291 6.5787 17.0658 6.82773 17.0658 6.82773C17.573 8.07289 17.2502 9.03213 17.158 9.26272C17.7575 9.91758 18.108 10.7385 18.108 11.7623C18.108 15.2856 15.9497 16.0604 13.8929 16.291C14.2249 16.5769 14.5293 17.1395 14.5293 17.9973V20.5245C14.5293 20.7736 14.6769 21.0687 15.1473 20.9857C18.809 19.7498 21.4469 16.3002 21.4469 12.2234C21.4469 11.0122 21.2083 9.81282 20.7448 8.69378C20.2813 7.57474 19.6019 6.55796 18.7454 5.70148C17.8889 4.84501 16.8721 4.16561 15.7531 3.70209C14.6341 3.23857 13.4347 3 12.2234 3Z" fill="black"/>
</svg>
